<?xml version="1.0" encoding="utf-8"?>
<!-- Generator: Adobe Illustrator 15.0.0, SVG Export Plug-In . SVG Version: 6.00 Build 0)  -->
<!DOCTYPE svg PUBLIC "-//W3C//DTD SVG 1.1//EN" "http://www.w3.org/Graphics/SVG/1.1/DTD/svg11.dtd">
<svg version="1.1" id="Layer_1" xmlns="http://www.w3.org/2000/svg" xmlns:xlink="http://www.w3.org/1999/xlink" x="0px" y="0px"
	 width="512px" height="512px" viewBox="0 0 512 512" enable-background="new 0 0 512 512" xml:space="preserve">
<g>
	<path fill-rule="evenodd" clip-rule="evenodd" fill="#5AC5C5" d="M256.678,477.08c121.615,0,220.804-99.188,220.804-220.801
		S378.293,35.479,256.678,35.479c-121.612,0-220.801,99.188-220.801,220.801S135.065,477.08,256.678,477.08z"/>
	<path fill-rule="evenodd" clip-rule="evenodd" fill="#8B3420" d="M106.719,256.279c0,16.06,11.065,29.533,25.985,33.22
		c-11.081,10.655-13.925,27.854-5.894,41.763c8.028,13.906,24.347,20.043,39.11,15.774c-4.265,14.768,1.872,31.083,15.778,39.114
		c13.909,8.027,31.108,5.187,41.763-5.895c3.687,14.921,17.157,25.985,33.217,25.985c16.062,0,29.533-11.064,33.22-25.985
		c10.655,11.081,27.856,13.922,41.763,5.895c13.909-8.031,20.043-24.347,15.777-39.114c14.764,4.269,31.083-1.868,39.11-15.774
		c8.032-13.909,5.188-31.107-5.891-41.763c14.921-3.687,25.982-17.16,25.982-33.22s-11.062-29.534-25.982-33.22
		c11.078-10.652,13.923-27.854,5.891-41.76c-8.027-13.909-24.347-20.046-39.11-15.778c4.266-14.763-1.868-31.082-15.777-39.113
		c-13.906-8.028-31.107-5.184-41.763,5.894c-3.687-14.92-17.157-25.985-33.217-25.985c-16.062,0-29.533,11.065-33.22,25.985
		c-10.655-11.078-27.854-13.922-41.763-5.894c-13.906,8.031-20.043,24.35-15.778,39.113c-14.764-4.268-31.082,1.869-39.11,15.778
		c-8.031,13.906-5.187,31.108,5.894,41.76C117.784,226.746,106.719,240.22,106.719,256.279z"/>
	<path fill-rule="evenodd" clip-rule="evenodd" fill="#8B3420" d="M256.678,383.469c70.055,0,127.192-57.135,127.192-127.189
		s-57.138-127.192-127.192-127.192c-70.052,0-127.189,57.138-127.189,127.192S186.626,383.469,256.678,383.469z"/>
	<g>
		<path fill-rule="evenodd" clip-rule="evenodd" fill="#FFD494" d="M314.442,168.149c0.135,0.285,0.269,0.573,0.396,0.858
			l0.112,0.246c0.179,0.394,0.352,0.791,0.519,1.187l0.086,0.202c0.176,0.419,0.349,0.842,0.516,1.264l0.063,0.16
			c0.167,0.426,0.33,0.854,0.486,1.283l0.067,0.179c0.16,0.432,0.311,0.864,0.458,1.299l0.066,0.195
			c0.145,0.438,0.292,0.88,0.43,1.322l0.048,0.153c0.128,0.426,0.256,0.851,0.377,1.277l0.07,0.243
			c0.135,0.461,0.257,0.925,0.378,1.385l0.02,0.08c0.118,0.467,0.233,0.938,0.342,1.408l0.039,0.169
			c0.108,0.474,0.211,0.944,0.31,1.42l0.017,0.083c0.099,0.48,0.191,0.963,0.278,1.449l0.028,0.154
			c0.084,0.464,0.16,0.931,0.23,1.398l0.029,0.176c0.073,0.48,0.134,0.963,0.201,1.446l0.01,0.061
			c0.073,0.509,0.121,1.024,0.176,1.536l0.017,0.16c0.048,0.48,0.079,0.963,0.128,1.443l0.013,0.154
			c0.038,0.518,0.07,1.04,0.099,1.558v0.029c0.032,0.538,0.062,1.075,0.064,1.613c0.028,0.544,0.02,1.082,0.02,1.625v0.035
			c0,0.55-0.007,1.097-0.022,1.647c-0.014,0.544-0.032,1.091-0.062,1.635c-0.028,0.544-0.061,1.088-0.103,1.632
			c-0.041,0.535-0.089,1.072-0.144,1.609c-0.051,0.535-0.115,1.069-0.183,1.603c-0.067,0.531-0.141,1.066-0.224,1.597
			c-0.08,0.525-0.166,1.05-0.263,1.574c-0.093,0.525-0.191,1.043-0.298,1.565c-0.105,0.521-0.221,1.037-0.339,1.552
			s-0.243,1.03-0.377,1.542c-0.128,0.509-0.266,1.018-0.41,1.52c-0.144,0.506-0.291,1.008-0.448,1.507
			c-0.156,0.502-0.316,0.999-0.482,1.494c-0.17,0.496-0.343,0.986-0.521,1.475c-0.18,0.486-0.365,0.973-0.554,1.456
			c-0.189,0.486-0.388,0.966-0.592,1.449c-0.202,0.474-0.407,0.947-0.621,1.421c-0.211,0.467-0.432,0.934-0.656,1.401
			c-0.224,0.464-0.454,0.928-0.688,1.386c-0.233,0.46-0.477,0.915-0.724,1.373c-0.243,0.451-0.496,0.902-0.752,1.35
			c-0.259,0.442-0.518,0.883-0.783,1.322c-0.27,0.441-0.541,0.876-0.819,1.309c-0.275,0.432-0.557,0.861-0.845,1.283
			c-0.285,0.425-0.579,0.845-0.874,1.264c-0.297,0.419-0.598,0.832-0.905,1.242c-0.307,0.409-0.617,0.812-0.931,1.216
			c-0.317,0.403-0.641,0.803-0.967,1.197c-0.323,0.394-0.652,0.781-0.985,1.165c-0.336,0.391-0.675,0.768-1.018,1.146
			c-0.343,0.381-0.691,0.755-1.046,1.126c-0.35,0.368-0.708,0.732-1.066,1.094c-0.361,0.361-0.729,0.717-1.097,1.068
			c-0.371,0.355-0.743,0.701-1.123,1.046c-0.378,0.342-0.759,0.682-1.146,1.018c-0.388,0.333-0.778,0.666-1.172,0.989
			c-0.396,0.326-0.793,0.646-1.196,0.963c-0.4,0.316-0.807,0.624-1.216,0.931c-0.41,0.307-0.822,0.608-1.238,0.905
			c-0.419,0.298-0.839,0.589-1.264,0.877c-0.423,0.285-0.852,0.566-1.283,0.845c-0.433,0.275-0.867,0.547-1.306,0.812
			c-0.438,0.269-0.883,0.528-1.325,0.784c-0.447,0.259-0.896,0.509-1.35,0.755c-0.451,0.247-0.909,0.486-1.366,0.723
			c-0.461,0.234-0.925,0.464-1.389,0.688c-0.468,0.224-0.935,0.445-1.405,0.656c-0.474,0.214-0.947,0.422-1.424,0.624
			s-0.96,0.397-1.442,0.589c-0.483,0.189-0.97,0.375-1.456,0.554c-0.49,0.179-0.985,0.355-1.479,0.521
			c-0.499,0.167-0.995,0.33-1.494,0.483c-0.499,0.154-1.002,0.304-1.504,0.448c-0.506,0.144-1.015,0.281-1.526,0.413
			c-0.509,0.131-1.021,0.259-1.536,0.374c-0.515,0.121-1.033,0.23-1.552,0.336c-0.521,0.108-1.043,0.208-1.567,0.304
			c-0.522,0.093-1.05,0.18-1.575,0.26c-0.53,0.083-1.062,0.153-1.593,0.224c-0.534,0.067-1.069,0.128-1.606,0.183
			c-0.416,0.045-0.832,0.08-1.248,0.115c17.007,24.343,50.21,32.067,76.4,16.948c27.655-15.966,37.161-51.448,21.194-79.1
			C350.026,180.388,333.154,169.791,314.442,168.149z"/>
		<path fill-rule="evenodd" clip-rule="evenodd" fill="#FFD494" d="M209.238,162.188c0.313,0.029,0.63,0.054,0.941,0.086
			l0.269,0.025c0.432,0.045,0.861,0.09,1.29,0.144l0.214,0.029c0.451,0.058,0.902,0.115,1.354,0.186l0.169,0.026
			c0.451,0.064,0.906,0.141,1.357,0.217l0.189,0.032c0.451,0.08,0.902,0.163,1.35,0.256l0.205,0.039
			c0.455,0.093,0.906,0.186,1.36,0.288l0.157,0.038c0.432,0.099,0.864,0.202,1.293,0.307l0.246,0.061
			c0.467,0.115,0.928,0.24,1.389,0.368l0.08,0.022c0.464,0.131,0.928,0.266,1.389,0.406l0.167,0.051
			c0.464,0.141,0.925,0.292,1.382,0.442l0.083,0.029c0.467,0.153,0.931,0.313,1.396,0.483l0.147,0.051
			c0.445,0.163,0.886,0.33,1.328,0.499l0.167,0.064c0.451,0.176,0.899,0.368,1.354,0.547l0.058,0.025
			c0.477,0.192,0.944,0.407,1.415,0.615l0.147,0.064c0.441,0.198,0.874,0.416,1.315,0.611l0.138,0.067
			c0.471,0.224,0.938,0.458,1.401,0.694l0.026,0.013c0.483,0.243,0.96,0.486,1.427,0.752c0.486,0.247,0.947,0.525,1.417,0.793
			l0.032,0.019c0.474,0.275,0.947,0.554,1.417,0.842c0.464,0.285,0.925,0.576,1.382,0.87c0.458,0.298,0.912,0.599,1.363,0.906
			c0.444,0.304,0.883,0.614,1.321,0.928c0.435,0.317,0.867,0.637,1.296,0.963c0.429,0.323,0.851,0.653,1.271,0.989
			c0.416,0.336,0.829,0.672,1.235,1.017c0.406,0.343,0.81,0.688,1.207,1.04c0.396,0.352,0.787,0.707,1.174,1.069
			c0.387,0.362,0.771,0.726,1.149,1.098c0.375,0.368,0.746,0.739,1.11,1.117c0.365,0.377,0.726,0.755,1.082,1.139
			c0.355,0.387,0.704,0.774,1.049,1.167c0.346,0.394,0.682,0.787,1.018,1.188c0.333,0.396,0.659,0.8,0.986,1.209
			c0.323,0.406,0.643,0.819,0.957,1.235c0.31,0.413,0.618,0.829,0.918,1.248c0.304,0.419,0.595,0.841,0.889,1.27
			c0.292,0.426,0.576,0.854,0.858,1.29c0.278,0.432,0.554,0.867,0.822,1.309c0.269,0.438,0.534,0.883,0.793,1.328
			c0.257,0.445,0.509,0.893,0.756,1.344c0.246,0.448,0.489,0.902,0.726,1.36c0.234,0.455,0.465,0.912,0.688,1.373
			c0.224,0.46,0.441,0.924,0.656,1.392c0.211,0.464,0.419,0.931,0.62,1.405c0.202,0.467,0.396,0.938,0.589,1.414
			c0.188,0.474,0.374,0.954,0.554,1.434c0.179,0.477,0.349,0.954,0.519,1.437c0.166,0.483,0.326,0.967,0.483,1.453
			c0.156,0.486,0.304,0.976,0.451,1.468c0.144,0.487,0.277,0.979,0.412,1.472c0.131,0.493,0.26,0.989,0.378,1.484
			c0.121,0.496,0.233,0.995,0.346,1.491c0.105,0.502,0.208,1.001,0.307,1.504c0.097,0.502,0.188,1.005,0.272,1.51
			c0.083,0.505,0.163,1.011,0.233,1.517c0.073,0.502,0.141,1.011,0.201,1.517c0.058,0.509,0.112,1.018,0.163,1.526
			c0.049,0.512,0.09,1.021,0.125,1.533c0.039,0.512,0.067,1.021,0.09,1.533c0.025,0.515,0.045,1.027,0.055,1.539
			c0.013,0.515,0.016,1.027,0.016,1.539c0,0.515-0.007,1.034-0.02,1.549c-0.016,0.512-0.035,1.027-0.061,1.542
			s-0.058,1.034-0.096,1.549c-0.042,0.515-0.083,1.03-0.135,1.542c-0.051,0.518-0.108,1.03-0.173,1.545
			c-0.063,0.515-0.134,1.03-0.211,1.545c-0.077,0.512-0.16,1.024-0.25,1.536c-0.089,0.515-0.186,1.03-0.287,1.542
			c-0.103,0.515-0.212,1.024-0.327,1.533c-0.115,0.512-0.236,1.021-0.364,1.529s-0.263,1.021-0.403,1.526
			c-0.145,0.509-0.291,1.014-0.444,1.52c-0.154,0.505-0.317,1.011-0.483,1.51c-0.17,0.505-0.343,1.008-0.525,1.51
			c-0.179,0.499-0.367,0.998-0.56,1.494c-0.195,0.499-0.396,0.995-0.604,1.488c-0.208,0.499-0.423,0.992-0.644,1.485
			c-0.173,0.381-0.349,0.761-0.527,1.139c29.588-2.557,52.878-27.451,52.878-57.691c0-31.933-25.972-57.905-57.905-57.905
			C237.63,137.493,220.015,146.804,209.238,162.188z"/>
		<path fill-rule="evenodd" clip-rule="evenodd" fill="#FFD494" d="M151.474,250.318c0.179-0.259,0.361-0.515,0.544-0.771
			l0.16-0.221c0.252-0.349,0.505-0.697,0.768-1.043l0.131-0.173c0.275-0.365,0.554-0.723,0.838-1.082l0.105-0.131
			c0.285-0.358,0.573-0.713,0.867-1.065l0.122-0.147c0.294-0.352,0.592-0.701,0.896-1.046l0.138-0.153
			c0.307-0.346,0.614-0.694,0.928-1.034l0.112-0.119c0.301-0.323,0.604-0.646,0.912-0.966l0.176-0.182
			c0.333-0.346,0.672-0.685,1.014-1.021l0.061-0.055c0.346-0.339,0.691-0.672,1.043-1.001l0.131-0.119
			c0.352-0.329,0.71-0.656,1.072-0.976l0.067-0.058c0.365-0.327,0.736-0.649,1.114-0.966l0.118-0.099
			c0.365-0.307,0.729-0.608,1.098-0.902l0.138-0.112c0.381-0.304,0.768-0.598,1.152-0.896l0.048-0.039
			c0.406-0.32,0.826-0.618,1.242-0.921l0.128-0.093c0.394-0.282,0.797-0.551,1.187-0.832l0.128-0.09
			c0.429-0.294,0.867-0.579,1.299-0.864l0.028-0.016c0.448-0.297,0.896-0.589,1.363-0.861c0.455-0.297,0.925-0.56,1.398-0.832
			l0.029-0.016c0.477-0.275,0.954-0.544,1.437-0.806c0.48-0.259,0.963-0.516,1.45-0.765c0.483-0.246,0.973-0.489,1.462-0.723
			c0.486-0.233,0.973-0.46,1.466-0.682c0.489-0.221,0.985-0.435,1.481-0.643s0.992-0.409,1.494-0.604
			c0.496-0.192,0.995-0.381,1.494-0.56c0.5-0.183,1.001-0.358,1.504-0.525c0.502-0.166,1.008-0.33,1.517-0.483
			c0.502-0.157,1.011-0.304,1.523-0.445c0.505-0.141,1.011-0.278,1.52-0.406s1.021-0.25,1.53-0.365
			c0.512-0.115,1.021-0.224,1.536-0.327c0.512-0.102,1.024-0.198,1.536-0.288c0.512-0.09,1.027-0.173,1.539-0.25
			c0.515-0.077,1.033-0.144,1.548-0.211c0.512-0.061,1.027-0.119,1.542-0.17c0.512-0.054,1.027-0.096,1.542-0.134
			c0.516-0.038,1.03-0.07,1.546-0.099c0.515-0.025,1.03-0.045,1.545-0.058s1.03-0.022,1.548-0.022c0.512,0,1.024,0.003,1.539,0.016
			c0.516,0.013,1.027,0.029,1.542,0.054c0.512,0.022,1.021,0.051,1.533,0.09c0.512,0.035,1.021,0.08,1.529,0.128
			c0.512,0.048,1.021,0.103,1.53,0.16c0.505,0.061,1.011,0.128,1.517,0.202c0.509,0.07,1.014,0.15,1.52,0.237
			c0.505,0.083,1.004,0.176,1.503,0.271c0.502,0.096,1.001,0.199,1.501,0.304c0.499,0.109,0.998,0.224,1.498,0.346
			c0.496,0.118,0.988,0.246,1.481,0.377c0.493,0.131,0.985,0.269,1.475,0.416c0.489,0.144,0.976,0.291,1.462,0.448
			c0.49,0.157,0.973,0.317,1.456,0.483c0.483,0.169,0.966,0.342,1.446,0.521c0.477,0.179,0.954,0.362,1.427,0.55
			c0.474,0.192,0.947,0.387,1.414,0.589c0.47,0.202,0.941,0.41,1.405,0.624c0.467,0.211,0.931,0.429,1.392,0.653
			c0.458,0.224,0.916,0.454,1.373,0.691c0.454,0.233,0.909,0.477,1.36,0.723c0.448,0.247,0.896,0.499,1.341,0.755
			c0.444,0.259,0.889,0.521,1.328,0.79c0.438,0.269,0.874,0.544,1.306,0.826c0.435,0.278,0.867,0.566,1.292,0.857
			c0.429,0.291,0.851,0.585,1.271,0.886c0.422,0.304,0.838,0.611,1.251,0.922c0.416,0.313,0.825,0.633,1.232,0.957
			c0.406,0.323,0.81,0.649,1.209,0.982c0.4,0.336,0.797,0.675,1.19,1.024c0.394,0.345,0.78,0.694,1.165,1.046
			c0.384,0.358,0.765,0.717,1.139,1.082c0.377,0.364,0.752,0.736,1.123,1.113c0.368,0.377,0.732,0.758,1.091,1.146
			c0.362,0.387,0.717,0.777,1.069,1.174s0.701,0.8,1.043,1.206c0.342,0.407,0.681,0.819,1.014,1.235
			c0.336,0.416,0.662,0.838,0.989,1.267c0.326,0.429,0.646,0.861,0.963,1.299c0.243,0.339,0.486,0.682,0.723,1.024
			c12.582-26.9,2.666-59.518-23.521-74.64c-27.655-15.966-63.134-6.46-79.101,21.195
			C144.281,213.384,143.538,233.296,151.474,250.318z"/>
		<path fill-rule="evenodd" clip-rule="evenodd" fill="#FFD494" d="M198.916,344.409c-0.138-0.284-0.269-0.572-0.4-0.857
			l-0.109-0.246c-0.179-0.394-0.352-0.79-0.521-1.188l-0.083-0.201c-0.176-0.419-0.349-0.842-0.515-1.264l-0.064-0.16
			c-0.167-0.426-0.33-0.854-0.486-1.283l-0.067-0.179c-0.16-0.433-0.311-0.864-0.458-1.3l-0.067-0.195
			c-0.147-0.438-0.291-0.88-0.429-1.321l-0.048-0.153c-0.131-0.426-0.256-0.852-0.381-1.276l-0.067-0.243
			c-0.134-0.461-0.259-0.925-0.377-1.389l-0.019-0.077c-0.119-0.471-0.234-0.938-0.342-1.408l-0.042-0.169
			c-0.105-0.471-0.208-0.944-0.307-1.421l-0.016-0.083c-0.099-0.48-0.195-0.964-0.278-1.45l-0.029-0.153
			c-0.083-0.467-0.16-0.931-0.233-1.401l-0.025-0.173c-0.074-0.479-0.135-0.963-0.202-1.446l-0.01-0.061
			c-0.074-0.512-0.122-1.024-0.176-1.536l-0.016-0.16c-0.048-0.479-0.08-0.963-0.128-1.442l-0.013-0.154
			c-0.039-0.519-0.071-1.04-0.099-1.558l-0.003-0.032c-0.029-0.534-0.058-1.072-0.061-1.609c-0.029-0.544-0.019-1.082-0.019-1.626
			v-0.035c0-0.55,0.006-1.101,0.019-1.647c0.016-0.544,0.035-1.092,0.061-1.635c0.029-0.545,0.064-1.089,0.105-1.633
			c0.042-0.534,0.09-1.071,0.141-1.609c0.054-0.534,0.118-1.068,0.186-1.603c0.067-0.531,0.141-1.065,0.224-1.597
			c0.08-0.525,0.167-1.053,0.263-1.574c0.093-0.525,0.192-1.043,0.297-1.564s0.221-1.037,0.339-1.553
			c0.118-0.518,0.243-1.03,0.374-1.542c0.131-0.509,0.269-1.018,0.413-1.52c0.141-0.506,0.291-1.008,0.448-1.507
			c0.154-0.503,0.317-0.999,0.483-1.495c0.167-0.495,0.342-0.985,0.521-1.475c0.176-0.489,0.361-0.973,0.553-1.456
			c0.189-0.486,0.387-0.97,0.592-1.449c0.198-0.474,0.406-0.947,0.621-1.421c0.211-0.471,0.432-0.938,0.656-1.401
			c0.221-0.464,0.454-0.928,0.688-1.386c0.234-0.461,0.474-0.918,0.72-1.369c0.246-0.454,0.499-0.905,0.755-1.354
			c0.256-0.441,0.519-0.883,0.784-1.321c0.269-0.441,0.541-0.877,0.816-1.309c0.278-0.433,0.56-0.861,0.848-1.283
			c0.285-0.426,0.576-0.845,0.874-1.264c0.298-0.42,0.599-0.832,0.906-1.242c0.307-0.409,0.614-0.812,0.931-1.216
			s0.637-0.803,0.966-1.196c0.323-0.394,0.653-0.781,0.985-1.168c0.333-0.388,0.672-0.765,1.015-1.143
			c0.345-0.381,0.694-0.755,1.046-1.126c0.352-0.368,0.71-0.733,1.069-1.095c0.362-0.361,0.727-0.717,1.098-1.072
			c0.368-0.352,0.742-0.697,1.12-1.043c0.378-0.342,0.762-0.682,1.149-1.018s0.777-0.665,1.171-0.988
			c0.394-0.326,0.793-0.646,1.194-0.963c0.403-0.317,0.81-0.624,1.216-0.932c0.41-0.307,0.825-0.607,1.241-0.905
			s0.838-0.589,1.264-0.877c0.422-0.284,0.851-0.566,1.283-0.845c0.429-0.275,0.867-0.547,1.305-0.812
			c0.438-0.269,0.88-0.528,1.325-0.784c0.448-0.259,0.896-0.509,1.351-0.755c0.451-0.246,0.909-0.486,1.366-0.723
			c0.46-0.234,0.921-0.465,1.389-0.688c0.464-0.224,0.934-0.441,1.405-0.656c0.47-0.214,0.944-0.422,1.424-0.624
			c0.477-0.201,0.96-0.396,1.443-0.588c0.48-0.189,0.966-0.375,1.456-0.554c0.489-0.18,0.985-0.355,1.478-0.522
			c0.496-0.167,0.995-0.33,1.491-0.483c0.502-0.154,1.001-0.304,1.504-0.448c0.509-0.144,1.018-0.281,1.529-0.413
			c0.509-0.131,1.021-0.259,1.536-0.375c0.515-0.122,1.03-0.23,1.548-0.339c0.522-0.105,1.046-0.205,1.568-0.301
			c0.525-0.093,1.05-0.179,1.578-0.259c0.528-0.083,1.059-0.154,1.593-0.224c0.535-0.067,1.069-0.128,1.606-0.182
			c0.413-0.045,0.829-0.08,1.248-0.115c-17.007-24.344-50.213-32.068-76.4-16.949c-27.655,15.967-37.165,51.446-21.195,79.101
			C163.332,332.171,180.204,342.768,198.916,344.409z"/>
		<path fill-rule="evenodd" clip-rule="evenodd" fill="#FFD494" d="M304.12,350.371c-0.313-0.029-0.631-0.055-0.944-0.087
			l-0.269-0.028c-0.429-0.042-0.857-0.087-1.286-0.142l-0.215-0.028c-0.454-0.058-0.905-0.118-1.356-0.186l-0.166-0.025
			c-0.454-0.064-0.905-0.141-1.356-0.218l-0.189-0.032c-0.451-0.08-0.902-0.163-1.354-0.253l-0.201-0.041
			c-0.454-0.093-0.909-0.186-1.36-0.288l-0.156-0.039c-0.433-0.099-0.864-0.201-1.296-0.307l-0.243-0.061
			c-0.468-0.115-0.932-0.24-1.393-0.368l-0.076-0.022c-0.464-0.131-0.928-0.266-1.389-0.406l-0.17-0.052
			c-0.461-0.141-0.921-0.291-1.382-0.441l-0.084-0.028c-0.464-0.154-0.931-0.313-1.392-0.483l-0.147-0.052
			c-0.444-0.163-0.889-0.329-1.327-0.499l-0.167-0.063c-0.454-0.18-0.898-0.368-1.354-0.547l-0.058-0.026
			c-0.477-0.191-0.946-0.406-1.417-0.614l-0.145-0.063c-0.441-0.198-0.873-0.416-1.314-0.611l-0.141-0.067
			c-0.468-0.224-0.935-0.457-1.398-0.694l-0.025-0.013c-0.483-0.243-0.96-0.486-1.428-0.752c-0.486-0.246-0.947-0.524-1.42-0.797
			l-0.029-0.016c-0.477-0.275-0.947-0.557-1.418-0.842c-0.464-0.285-0.924-0.576-1.385-0.873c-0.458-0.295-0.912-0.596-1.36-0.906
			c-0.444-0.301-0.883-0.611-1.321-0.928c-0.438-0.313-0.867-0.634-1.296-0.96c-0.429-0.323-0.854-0.652-1.271-0.988
			s-0.828-0.672-1.234-1.018c-0.407-0.343-0.81-0.688-1.207-1.04c-0.396-0.352-0.787-0.707-1.174-1.068
			c-0.388-0.362-0.771-0.727-1.148-1.098c-0.375-0.368-0.746-0.739-1.11-1.117c-0.365-0.377-0.727-0.755-1.082-1.143
			c-0.355-0.384-0.704-0.771-1.053-1.164c-0.342-0.394-0.682-0.787-1.015-1.188c-0.336-0.399-0.662-0.803-0.985-1.209
			c-0.326-0.406-0.643-0.819-0.956-1.235c-0.314-0.413-0.618-0.829-0.922-1.248c-0.301-0.419-0.595-0.845-0.886-1.271
			c-0.292-0.425-0.576-0.857-0.858-1.289c-0.278-0.432-0.553-0.87-0.825-1.309c-0.269-0.438-0.531-0.883-0.791-1.328
			c-0.256-0.444-0.509-0.893-0.758-1.344c-0.246-0.448-0.486-0.902-0.723-1.36c-0.233-0.454-0.464-0.911-0.688-1.372
			c-0.224-0.461-0.441-0.925-0.656-1.393c-0.214-0.464-0.422-0.931-0.624-1.404c-0.198-0.467-0.397-0.938-0.585-1.414
			c-0.192-0.474-0.375-0.954-0.554-1.434c-0.179-0.477-0.352-0.957-0.518-1.437c-0.167-0.483-0.327-0.967-0.483-1.453
			s-0.307-0.976-0.451-1.469c-0.144-0.486-0.278-0.979-0.413-1.472c-0.135-0.492-0.259-0.988-0.378-1.484
			c-0.121-0.496-0.236-0.995-0.345-1.491c-0.109-0.502-0.211-1.002-0.307-1.504c-0.096-0.502-0.189-1.005-0.272-1.511
			c-0.083-0.505-0.164-1.011-0.237-1.517c-0.07-0.505-0.138-1.011-0.198-1.517c-0.061-0.509-0.115-1.018-0.164-1.526
			c-0.048-0.512-0.093-1.021-0.128-1.532s-0.064-1.021-0.089-1.536c-0.022-0.512-0.042-1.023-0.051-1.536
			c-0.013-0.515-0.019-1.026-0.016-1.542c0-0.512,0.006-1.03,0.019-1.545c0.016-0.513,0.035-1.027,0.061-1.546
			c0.025-0.515,0.058-1.03,0.096-1.545c0.039-0.516,0.083-1.031,0.135-1.543c0.051-0.519,0.108-1.03,0.173-1.545
			c0.064-0.516,0.134-1.03,0.211-1.546c0.077-0.512,0.16-1.023,0.247-1.536c0.093-0.515,0.186-1.03,0.291-1.542
			c0.103-0.515,0.211-1.023,0.326-1.532c0.115-0.513,0.237-1.021,0.365-1.529c0.128-0.51,0.263-1.021,0.403-1.526
			c0.144-0.509,0.288-1.018,0.445-1.521c0.154-0.505,0.317-1.011,0.483-1.51c0.17-0.506,0.343-1.008,0.525-1.511
			c0.179-0.499,0.368-0.998,0.56-1.494c0.195-0.499,0.396-0.995,0.604-1.491s0.423-0.992,0.644-1.481
			c0.169-0.381,0.349-0.762,0.524-1.139c-29.584,2.557-52.875,27.45-52.875,57.69c0,31.934,25.972,57.906,57.902,57.906
			C275.729,375.066,293.344,365.755,304.12,350.371z"/>
		<path fill-rule="evenodd" clip-rule="evenodd" fill="#FFD494" d="M361.882,262.24c-0.177,0.26-0.358,0.516-0.544,0.771
			l-0.157,0.221c-0.253,0.349-0.505,0.697-0.768,1.043l-0.132,0.173c-0.274,0.364-0.553,0.724-0.838,1.078l-0.105,0.135
			c-0.285,0.358-0.573,0.713-0.867,1.065l-0.122,0.147c-0.294,0.352-0.592,0.7-0.896,1.046l-0.138,0.153
			c-0.307,0.346-0.614,0.694-0.931,1.034l-0.109,0.118c-0.301,0.323-0.604,0.646-0.915,0.966l-0.176,0.183
			c-0.333,0.346-0.672,0.685-1.015,1.018l-0.058,0.058c-0.346,0.339-0.694,0.672-1.046,0.998l-0.128,0.122
			c-0.355,0.329-0.714,0.655-1.072,0.976l-0.067,0.058c-0.367,0.326-0.735,0.649-1.113,0.967l-0.121,0.099
			c-0.362,0.308-0.727,0.608-1.095,0.902l-0.141,0.112c-0.378,0.304-0.765,0.599-1.148,0.896l-0.048,0.039
			c-0.407,0.319-0.826,0.617-1.242,0.921l-0.131,0.093c-0.391,0.282-0.797,0.551-1.188,0.832l-0.125,0.09
			c-0.432,0.294-0.866,0.579-1.302,0.864l-0.025,0.016c-0.448,0.298-0.899,0.589-1.363,0.86c-0.454,0.298-0.928,0.561-1.398,0.832
			l-0.028,0.017c-0.478,0.274-0.957,0.544-1.44,0.806c-0.477,0.26-0.96,0.516-1.446,0.765c-0.483,0.247-0.973,0.49-1.465,0.724
			c-0.483,0.233-0.973,0.461-1.463,0.682c-0.489,0.221-0.985,0.435-1.481,0.643s-0.992,0.41-1.494,0.605
			c-0.496,0.191-0.995,0.381-1.494,0.56c-0.503,0.183-1.002,0.358-1.507,0.524c-0.503,0.167-1.005,0.33-1.514,0.483
			c-0.506,0.153-1.012,0.304-1.523,0.445c-0.506,0.141-1.011,0.274-1.52,0.406c-0.509,0.128-1.021,0.249-1.529,0.364
			c-0.513,0.115-1.024,0.225-1.536,0.326c-0.512,0.103-1.024,0.199-1.539,0.288c-0.512,0.09-1.024,0.17-1.536,0.25
			c-0.515,0.077-1.033,0.144-1.549,0.208c-0.515,0.063-1.026,0.121-1.542,0.173c-0.515,0.054-1.027,0.096-1.542,0.134
			c-0.516,0.039-1.03,0.07-1.546,0.1c-0.515,0.025-1.03,0.045-1.545,0.058c-0.519,0.013-1.034,0.022-1.549,0.022
			c-0.512,0-1.027-0.003-1.539-0.016c-0.516-0.014-1.027-0.029-1.542-0.055c-0.513-0.022-1.021-0.055-1.533-0.09
			s-1.021-0.08-1.532-0.128c-0.509-0.048-1.018-0.103-1.53-0.16c-0.505-0.061-1.011-0.128-1.517-0.201
			c-0.505-0.07-1.011-0.15-1.52-0.237c-0.502-0.083-1.001-0.173-1.501-0.271c-0.502-0.096-1.001-0.198-1.5-0.308
			c-0.5-0.105-0.999-0.221-1.498-0.342c-0.496-0.119-0.988-0.247-1.481-0.378c-0.492-0.131-0.985-0.271-1.475-0.416
			c-0.49-0.144-0.979-0.291-1.466-0.448c-0.486-0.156-0.97-0.316-1.456-0.482c-0.479-0.17-0.963-0.343-1.442-0.522
			c-0.48-0.179-0.957-0.361-1.431-0.55c-0.474-0.192-0.944-0.388-1.414-0.589c-0.471-0.201-0.938-0.409-1.405-0.624
			c-0.464-0.211-0.928-0.429-1.389-0.652c-0.457-0.225-0.918-0.454-1.372-0.691c-0.455-0.233-0.909-0.477-1.36-0.724
			c-0.451-0.246-0.899-0.499-1.341-0.755c-0.447-0.259-0.89-0.524-1.327-0.79c-0.438-0.272-0.877-0.544-1.31-0.825
			c-0.435-0.278-0.863-0.566-1.292-0.858c-0.426-0.291-0.849-0.585-1.271-0.889c-0.419-0.301-0.835-0.608-1.251-0.919
			c-0.413-0.313-0.822-0.634-1.229-0.956c-0.406-0.323-0.81-0.65-1.21-0.982c-0.399-0.336-0.8-0.676-1.19-1.024
			c-0.394-0.346-0.783-0.694-1.164-1.046c-0.385-0.358-0.766-0.717-1.14-1.082c-0.381-0.367-0.755-0.735-1.123-1.113
			s-0.732-0.758-1.095-1.146c-0.361-0.387-0.713-0.777-1.065-1.174c-0.352-0.397-0.7-0.8-1.043-1.207
			c-0.346-0.406-0.682-0.818-1.014-1.234c-0.336-0.416-0.666-0.842-0.989-1.268c-0.326-0.429-0.649-0.86-0.963-1.299
			c-0.246-0.339-0.486-0.682-0.723-1.024c-12.582,26.9-2.668,59.519,23.521,74.638c27.655,15.97,63.134,6.463,79.101-21.192
			C369.074,299.175,369.82,279.263,361.882,262.24z"/>
		<path fill-rule="evenodd" clip-rule="evenodd" fill="#FFFFFF" d="M230.814,157.231c27.565-4.79,52.962,3.965,71.092,28.551
			C301.973,163.455,267.704,129.561,230.814,157.231z"/>
		<path fill-rule="evenodd" clip-rule="evenodd" fill="#FFFFFF" d="M157.966,229.155c9.638-26.267,29.915-43.884,60.273-47.292
			C198.938,170.642,152.45,183.374,157.966,229.155z"/>
		<path fill-rule="evenodd" clip-rule="evenodd" fill="#FFFFFF" d="M183.833,328.206c-17.931-21.479-23.048-47.849-10.821-75.847
			C153.643,263.466,141.423,310.093,183.833,328.206z"/>
		<path fill-rule="evenodd" clip-rule="evenodd" fill="#FFFFFF" d="M282.544,355.33c-27.565,4.787-52.962-3.965-71.095-28.555
			C211.382,349.104,245.654,382.998,282.544,355.33z"/>
		<path fill-rule="evenodd" clip-rule="evenodd" fill="#FFFFFF" d="M355.393,283.406c-9.638,26.264-29.918,43.882-60.276,47.289
			C314.42,341.92,360.909,329.188,355.393,283.406z"/>
		<path fill-rule="evenodd" clip-rule="evenodd" fill="#FFFFFF" d="M329.525,184.356c17.929,21.477,23.048,47.849,10.818,75.843
			C359.715,249.096,371.936,202.469,329.525,184.356z"/>
	</g>
	<path fill-rule="evenodd" clip-rule="evenodd" fill="#ED2224" d="M256.678,302.212c25.3,0,45.936-20.636,45.936-45.933
		s-20.636-45.932-45.936-45.932c-25.297,0-45.932,20.635-45.932,45.932S231.38,302.212,256.678,302.212z"/>
	<path fill-rule="evenodd" clip-rule="evenodd" fill="#F8BCCA" d="M246.826,266.506c10.441,0,18.958-8.518,18.958-18.962
		c0-10.44-8.518-18.958-18.958-18.958c-10.444,0-18.961,8.518-18.961,18.958C227.864,257.988,236.382,266.506,246.826,266.506z"/>
</g>
</svg>
