<?xml version="1.0" encoding="utf-8"?>
<!-- Generator: Adobe Illustrator 15.0.0, SVG Export Plug-In . SVG Version: 6.00 Build 0)  -->
<!DOCTYPE svg PUBLIC "-//W3C//DTD SVG 1.1//EN" "http://www.w3.org/Graphics/SVG/1.1/DTD/svg11.dtd">
<svg version="1.1" id="Layer_1" xmlns="http://www.w3.org/2000/svg" xmlns:xlink="http://www.w3.org/1999/xlink" x="0px" y="0px"
	 width="512px" height="512px" viewBox="0 0 512 512" enable-background="new 0 0 512 512" xml:space="preserve">
<g>
	
		<image overflow="visible" opacity="0.37" width="2042" height="2042" xlink:href="F91E424C.png"  transform="matrix(0.24 0 0 0.24 12.8208 11)">
	</image>
	<g>
		<circle fill="#AE1F23" cx="255.821" cy="255.999" r="224"/>
	</g>
</g>
<g>
	<g>
		<g>
			<g>
				<path fill="#F5F6F6" d="M255.26,382.023c-63.493,0-115.137-51.648-115.137-115.125c0-63.495,51.645-115.151,115.137-115.151
					c63.493,0,115.134,51.656,115.134,115.151C370.394,330.375,318.753,382.023,255.26,382.023z M255.26,161.745
					c-57.989,0-105.107,47.176-105.107,105.153c0,57.941,47.118,105.111,105.107,105.111c57.976,0,105.116-47.17,105.116-105.111
					C360.376,208.921,313.236,161.745,255.26,161.745z"/>
			</g>
		</g>
	</g>
	<g>
		<g>
			<g>
				<path fill="#F5F6F6" d="M353.012,266.898c0,53.963-43.787,97.713-97.751,97.713c-53.977,0-97.759-43.75-97.759-97.713
					c0-53.99,43.783-97.756,97.759-97.756C309.225,169.142,353.012,212.909,353.012,266.898z"/>
			</g>
		</g>
	</g>
	<g>
		<g>
			<g>
				<path fill-rule="evenodd" clip-rule="evenodd" fill="#F5F6F6" d="M121.215,164.102l-2.909,54.883h-12.592l-1.083-56.021h-8.722
					l-1.363,56.021H83.806l-4.459-54.892l-9.099,0.008v56.806h0.076c0.577,18.113,9.529,19.877,21.636,25.034h-0.221v37.948v0.025
					v82.25c10.402,10.424,18.431,0.033,18.431,0.033l0.025-83.795h-0.025v-36.42c0,0,19.865-6.962,20.437-25.076h0.075
					l-0.012-56.806H121.215z"/>
			</g>
		</g>
		<g>
			<g>
				<path fill-rule="evenodd" clip-rule="evenodd" fill="#F5F6F6" d="M416.647,160.308h-12.852h-12.864v213.181h25.716V260.795
					h22.297C451.741,204.776,416.647,160.308,416.647,160.308z"/>
			</g>
		</g>
	</g>
</g>
</svg>
